<svg xmlns="http://www.w3.org/2000/svg"  fill="rgba(255, 255, 255, .9)" class="tiktok-1w8fgyd-StyledEditIcon e33dl3i3">
    <path fill="rgba(255, 255, 255, .9)" fill-rule="evenodd" d="M15.393 2.226a.842.842 0 0 0-1.17.02L8.142 8.33a.842.842 0 0 0-.247.595v2.34c0 .464.377.841.842.841h2.183a.842.842 0 0 0 .596-.246l6.237-6.238a.843.843 0 0 0-.02-1.211l-2.34-2.184ZM9.58 9.273l5.26-5.26 1.107 1.033-5.374 5.375H9.58V9.273ZM9.58 2a.42.42 0 0 1 .42.421v.842a.421.421 0 0 1-.42.421H4.526a.842.842 0 0 0-.842.842v10.948c0 .465.377.842.842.842h10.947a.842.842 0 0 0 .842-.842V10.42c0-.232.189-.421.421-.421h.842c.233 0 .422.188.422.421v5.053A2.526 2.526 0 0 1 15.473 18H4.526A2.526 2.526 0 0 1 2 15.474V4.526A2.526 2.526 0 0 1 4.526 2H9.58Z" clip-rule="evenodd"></path>
</svg>