<svg xmlns="http://www.w3.org/2000/svg" width="-1px" height="1em" fill="currentColor" class="tiktok-ucu7t9-StyledPCLightIcon e1obtf0n5">
    <path fill="black" d="M70 42.25a6.75 6.75 0 0 1-6.75-6.75h-4.5v18.375a4.125 4.125 0 1 1-3-3.97v-4.582a8.625 8.625 0 1 0 7.5 8.552v-9.374A11.2 11.2 0 0 0 70 46.75v-4.5Z"></path><path fill="black" fill-rule="evenodd" d="M18 18a5 5 0 0 0-5 5v54H3.5a.5.5 0 0 0-.5.5v1.26c0 .152.07.294.198.375C3.918 79.583 6.688 81 13 81h90.5c6.816 0 8.913-1.452 9.385-1.882a.377.377 0 0 0 .115-.285V77.5a.5.5 0 0 0-.5-.5H103V23a5 5 0 0 0-5-5H18Zm81.5 3h-83c-.607.456-1 1.182-1 2v52.5h85V23c0-.818-.393-1.544-1-2Z" clip-rule="evenodd"></path><path fill="black" d="M55.707 21.707c-.63-.63-.184-1.707.707-1.707h5.172c.89 0 1.337 1.077.707 1.707a1 1 0 0 1-.707.293h-5.172a1 1 0 0 1-.707-.293Z"></path>

</svg>